<svg xmlns="http://www.w3.org/2000/svg" viewBox="0 0 100 100">
  <path fill-rule="evenodd" fill="currentColor" d="M38 0L62 0C75.42 0 82.13 0 87.27 2.61C91.73 4.91 95.09 8.27 97.39 12.73C100 17.87 100 24.58 100 38L100 62C100 75.42 100 82.13 97.39 87.27C95.09 91.73 91.73 95.09 87.27 97.39C82.13 100 75.42 100 62 100L38 100C24.58 100 17.87 100 12.73 97.39C8.27 95.09 4.91 91.73 2.61 87.27C0 82.13 0 75.42 0 62L0 38C0 24.58 0 17.87 2.61 12.73C4.91 8.27 8.27 4.91 12.73 2.61C17.87 0 24.58 0 38 0ZM31 25L69 25C76.77 25 80.65 25 83.54 26.51C86.17 27.85 88.15 29.83 89.49 32.46C91 35.35 91 39.23 91 47L91 53C91 60.77 91 64.65 89.49 67.54C88.15 70.17 86.17 72.15 83.54 73.49C80.65 75 76.77 75 69 75L31 75C23.23 75 19.35 75 16.46 73.49C13.83 72.15 11.85 70.17 10.51 67.54C9 64.65 9 60.77 9 53L9 47C9 39.23 9 35.35 10.51 32.46C11.85 29.83 13.83 27.85 16.46 26.51C19.35 25 23.23 25 31 25ZM30 43L32 43C36.5 43 38 44.5 38 49L38 52C38 56.5 36.5 58 32 58L30 58C25.5 58 24 56.5 24 52L24 49C24 44.5 25.5 43 30 43ZM68 43L70 43C74.5 43 76 44.5 76 49L76 52C76 56.5 74.5 58 70 58L68 58C63.5 58 62 56.5 62 52L62 49C62 44.5 63.5 43 68 43Z"/>
</svg>
